<?xml version="1.0" encoding="UTF-8" standalone="no"?>
<svg xmlns:rdf="http://www.w3.org/1999/02/22-rdf-syntax-ns#" xmlns="http://www.w3.org/2000/svg" height="24" width="24" version="1.1" xmlns:cc="http://creativecommons.org/ns#" xmlns:dc="http://purl.org/dc/elements/1.1/">
 <g transform="matrix(1,0,0,1,0,-1028.4)">
  <path d="M 12 0 c -4.4 0 -8 3.6 -8 8 c 0 1.4 0.4 2.8 1 3.9 c 0.1 0.2 0.2 0.4 0.3 0.6 l 6.6 11.5 l 6.6 -11.5 c 0.1 -0.2 0.2 -0.3 0.3 -0.5 l 0.1 -0.1 c 0.6 -1.2 1 -2.5 1 -3.9 c 0 -4.4 -3.6 -8 -8 -8 z m 0 4 c 2.2 0 4 1.8 4 4 c 0 2.2 -1.8 4 -4 4 c -2.2 0 -4 -1.8 -4 -4 c 0 -2.2 1.8 -4 4 -4 z" transform="translate(0,1028.4)" fill="#e74c3c"/>
  <path d="M 12 3 c -2.8 0 -5 2.2 -5 5 c 0 2.8 2.2 5 5 5 c 2.8 0 5 -2.2 5 -5 c 0 -2.8 -2.2 -5 -5 -5 z m 0 2 c 1.7 0 3 1.3 3 3 s -1.3 3 -3 3 s -3 -1.3 -3 -3 s 1.3 -3 3 -3 z" transform="translate(0,1028.4)" fill="#c0392b"/>
 </g>
</svg>
