<?xml version="1.0" encoding="UTF-8"?>
<svg width="24" height="24" version="1.1" xmlns="http://www.w3.org/2000/svg">
 <g transform="translate(0 -1028.4)">
  <path transform="translate(0 1028.4)" d="m12 0c-4.4183 2.3685e-15 -8 3.5817-8 8 0 1.421 0.3816 2.7496 1.0312 3.9062 0.10783 0.19197 0.22096 0.38075 0.34375 0.5625l6.625 11.531 6.625-11.531c0.10181-0.1507 0.18967-0.31097 0.28125-0.46875l0.0625-0.09375c0.64965-1.1566 1.0312-2.4852 1.0312-3.9062 0-4.4183-3.5817-8-8-8zm0 4c2.2091 0 4 1.7909 4 4s-1.7909 4-4 4-4-1.7909-4-4 1.7909-4 4-4z" fill="#ecf0f1"/>
  <path transform="translate(0 1028.4)" d="m12 3c-2.7614 0-5 2.2386-5 5 0 2.7614 2.2386 5 5 5 2.7614 0 5-2.2386 5-5 0-2.7614-2.2386-5-5-5zm0 2c1.6569 0 3 1.3431 3 3s-1.3431 3-3 3-3-1.3431-3-3 1.3431-3 3-3z" fill="#bdc3c7"/>
 </g>
</svg>
